# xmcd CD database file generated by MAGIX_Freedb v1.00
# 
# Track frame offsets:
#      150
#      25247
#      63208
#      92748
#      104477
#      127077
#      161186
#      213578
# 
# Disc length: 3390 seconds
# 
# Revision: 1 
# Processed by: cddbd v1.5.1PL0 Copyright (c) Steve Scherf et al.
# Submitted via: MAGIX_Freedb v1.00
# 
DISCID=710d3c08
DTITLE=Bhaktivedanta college I - Hare Krsna
DYEAR=2005
DGENRE=New Age
TTITLE0=Invocation
TTITLE1=Maha-mantra
TTITLE2=Bhajahu Re Mana
TTITLE3=Gopinatha-The Reading
TTITLE4=Gopinatha-The Song
TTITLE5=Jaya Radha Girivara Dhari
TTITLE6=Maha-mantra
TTITLE7=Nava Guara Varam
EXTD=YEAR: 2005
EXTT0=
EXTT1=
EXTT2=
EXTT3=
EXTT4=
EXTT5=
EXTT6=
EXTT7=
PLAYORDER=
